<mxfile host="app.diagrams.net" modified="2021-12-28T01:18:35.051Z" agent="5.0 (Macintosh; Intel Mac OS X 10_15_7) AppleWebKit/537.36 (KHTML, like Gecko) Chrome/96.0.4664.93 Safari/537.36" etag="0QlzWU01QIsPa8KsB7ek" version="16.1.0" type="github">
  <diagram id="Yj6GnhGxe3EkcIhXZ30J" name="Page-1">
    <mxGraphModel dx="1013" dy="703" grid="1" gridSize="10" guides="1" tooltips="1" connect="1" arrows="1" fold="1" page="1" pageScale="1" pageWidth="827" pageHeight="1169" math="0" shadow="0">
      <root>
        <mxCell id="0" />
        <mxCell id="1" parent="0" />
        <mxCell id="96T816JnjrinyvRvFRQ3-1" style="edgeStyle=orthogonalEdgeStyle;rounded=0;orthogonalLoop=1;jettySize=auto;html=1;exitX=0.5;exitY=1;exitDx=0;exitDy=0;entryX=0.5;entryY=0;entryDx=0;entryDy=0;" parent="1" source="96T816JnjrinyvRvFRQ3-2" target="96T816JnjrinyvRvFRQ3-32" edge="1">
          <mxGeometry relative="1" as="geometry" />
        </mxCell>
        <mxCell id="96T816JnjrinyvRvFRQ3-2" value="&lt;font style=&quot;font-size: 18px&quot;&gt;IOS&lt;/font&gt;" style="rounded=0;whiteSpace=wrap;html=1;fillColor=#dae8fc;strokeColor=#6c8ebf;" parent="1" vertex="1">
          <mxGeometry x="230" y="90" width="80" height="40" as="geometry" />
        </mxCell>
        <mxCell id="96T816JnjrinyvRvFRQ3-3" style="edgeStyle=orthogonalEdgeStyle;rounded=0;orthogonalLoop=1;jettySize=auto;html=1;exitX=0.5;exitY=1;exitDx=0;exitDy=0;entryX=0.5;entryY=0;entryDx=0;entryDy=0;" parent="1" source="96T816JnjrinyvRvFRQ3-4" target="96T816JnjrinyvRvFRQ3-32" edge="1">
          <mxGeometry relative="1" as="geometry" />
        </mxCell>
        <mxCell id="96T816JnjrinyvRvFRQ3-4" value="&lt;font style=&quot;font-size: 18px&quot;&gt;Android&lt;/font&gt;" style="rounded=0;whiteSpace=wrap;html=1;fillColor=#dae8fc;strokeColor=#6c8ebf;" parent="1" vertex="1">
          <mxGeometry x="360" y="90" width="80" height="40" as="geometry" />
        </mxCell>
        <mxCell id="96T816JnjrinyvRvFRQ3-5" style="edgeStyle=orthogonalEdgeStyle;rounded=0;orthogonalLoop=1;jettySize=auto;html=1;exitX=0.5;exitY=1;exitDx=0;exitDy=0;" parent="1" source="96T816JnjrinyvRvFRQ3-6" edge="1">
          <mxGeometry relative="1" as="geometry">
            <mxPoint x="400" y="185" as="targetPoint" />
          </mxGeometry>
        </mxCell>
        <mxCell id="96T816JnjrinyvRvFRQ3-6" value="&lt;span style=&quot;font-size: 18px&quot;&gt;小程序&lt;/span&gt;" style="rounded=0;whiteSpace=wrap;html=1;fillColor=#dae8fc;strokeColor=#6c8ebf;" parent="1" vertex="1">
          <mxGeometry x="490" y="90" width="80" height="40" as="geometry" />
        </mxCell>
        <mxCell id="96T816JnjrinyvRvFRQ3-7" style="edgeStyle=orthogonalEdgeStyle;rounded=0;orthogonalLoop=1;jettySize=auto;html=1;exitX=0.5;exitY=1;exitDx=0;exitDy=0;entryX=0.5;entryY=0;entryDx=0;entryDy=0;entryPerimeter=0;fontSize=18;" parent="1" source="96T816JnjrinyvRvFRQ3-8" target="96T816JnjrinyvRvFRQ3-15" edge="1">
          <mxGeometry relative="1" as="geometry" />
        </mxCell>
        <mxCell id="96T816JnjrinyvRvFRQ3-8" value="&lt;font style=&quot;font-size: 18px&quot;&gt;zzYpmallLogic&lt;/font&gt;" style="rounded=0;whiteSpace=wrap;html=1;fillColor=#ffe6cc;strokeColor=#d79b00;" parent="1" vertex="1">
          <mxGeometry x="135" y="292" width="130" height="40" as="geometry" />
        </mxCell>
        <mxCell id="96T816JnjrinyvRvFRQ3-9" style="edgeStyle=orthogonalEdgeStyle;rounded=0;orthogonalLoop=1;jettySize=auto;html=1;exitX=0.5;exitY=1;exitDx=0;exitDy=0;entryX=0.5;entryY=0;entryDx=0;entryDy=0;entryPerimeter=0;fontSize=18;" parent="1" source="96T816JnjrinyvRvFRQ3-10" target="96T816JnjrinyvRvFRQ3-21" edge="1">
          <mxGeometry relative="1" as="geometry" />
        </mxCell>
        <mxCell id="96T816JnjrinyvRvFRQ3-10" value="&lt;font style=&quot;font-size: 18px&quot;&gt;zzBookLogic&lt;/font&gt;" style="rounded=0;whiteSpace=wrap;html=1;fillColor=#ffe6cc;strokeColor=#d79b00;" parent="1" vertex="1">
          <mxGeometry x="525" y="292" width="130" height="40" as="geometry" />
        </mxCell>
        <mxCell id="96T816JnjrinyvRvFRQ3-11" style="edgeStyle=orthogonalEdgeStyle;rounded=0;orthogonalLoop=1;jettySize=auto;html=1;exitX=0.5;exitY=1;exitDx=0;exitDy=0;entryX=0.5;entryY=0;entryDx=0;entryDy=0;entryPerimeter=0;fontSize=18;" parent="1" source="96T816JnjrinyvRvFRQ3-12" target="96T816JnjrinyvRvFRQ3-17" edge="1">
          <mxGeometry relative="1" as="geometry" />
        </mxCell>
        <mxCell id="96T816JnjrinyvRvFRQ3-12" value="&lt;font style=&quot;font-size: 18px&quot;&gt;zzuser&lt;/font&gt;" style="rounded=0;whiteSpace=wrap;html=1;fillColor=#e1d5e7;strokeColor=#9673a6;" parent="1" vertex="1">
          <mxGeometry x="267" y="393" width="80" height="40" as="geometry" />
        </mxCell>
        <mxCell id="96T816JnjrinyvRvFRQ3-13" style="edgeStyle=orthogonalEdgeStyle;rounded=0;orthogonalLoop=1;jettySize=auto;html=1;exitX=0.5;exitY=1;exitDx=0;exitDy=0;entryX=0.5;entryY=0;entryDx=0;entryDy=0;entryPerimeter=0;fontSize=18;" parent="1" source="96T816JnjrinyvRvFRQ3-14" target="96T816JnjrinyvRvFRQ3-19" edge="1">
          <mxGeometry relative="1" as="geometry" />
        </mxCell>
        <mxCell id="96T816JnjrinyvRvFRQ3-14" value="&lt;font style=&quot;font-size: 18px&quot;&gt;zzproduct&lt;/font&gt;" style="rounded=0;whiteSpace=wrap;html=1;fillColor=#e1d5e7;strokeColor=#9673a6;" parent="1" vertex="1">
          <mxGeometry x="456" y="393" width="80" height="40" as="geometry" />
        </mxCell>
        <mxCell id="96T816JnjrinyvRvFRQ3-15" value="" style="shape=cylinder3;whiteSpace=wrap;html=1;boundedLbl=1;backgroundOutline=1;size=15;fontSize=18;fillColor=#b1ddf0;strokeColor=#10739e;" parent="1" vertex="1">
          <mxGeometry x="180" y="468" width="40" height="60" as="geometry" />
        </mxCell>
        <mxCell id="96T816JnjrinyvRvFRQ3-16" value="zzYpmallDB" style="text;html=1;align=center;verticalAlign=middle;resizable=0;points=[];autosize=1;strokeColor=none;fillColor=none;fontSize=18;" parent="1" vertex="1">
          <mxGeometry x="145" y="523" width="110" height="30" as="geometry" />
        </mxCell>
        <mxCell id="96T816JnjrinyvRvFRQ3-17" value="" style="shape=cylinder3;whiteSpace=wrap;html=1;boundedLbl=1;backgroundOutline=1;size=15;fontSize=18;fillColor=#b1ddf0;strokeColor=#10739e;" parent="1" vertex="1">
          <mxGeometry x="287" y="468" width="40" height="60" as="geometry" />
        </mxCell>
        <mxCell id="96T816JnjrinyvRvFRQ3-18" value="zzuserDB" style="text;html=1;align=center;verticalAlign=middle;resizable=0;points=[];autosize=1;strokeColor=none;fillColor=none;fontSize=18;" parent="1" vertex="1">
          <mxGeometry x="262" y="523" width="90" height="30" as="geometry" />
        </mxCell>
        <mxCell id="96T816JnjrinyvRvFRQ3-19" value="" style="shape=cylinder3;whiteSpace=wrap;html=1;boundedLbl=1;backgroundOutline=1;size=15;fontSize=18;fillColor=#b1ddf0;strokeColor=#10739e;" parent="1" vertex="1">
          <mxGeometry x="476" y="468" width="40" height="60" as="geometry" />
        </mxCell>
        <mxCell id="96T816JnjrinyvRvFRQ3-20" value="zzproductDB" style="text;html=1;align=center;verticalAlign=middle;resizable=0;points=[];autosize=1;strokeColor=none;fillColor=none;fontSize=18;" parent="1" vertex="1">
          <mxGeometry x="440" y="523" width="120" height="30" as="geometry" />
        </mxCell>
        <mxCell id="96T816JnjrinyvRvFRQ3-21" value="" style="shape=cylinder3;whiteSpace=wrap;html=1;boundedLbl=1;backgroundOutline=1;size=15;fontSize=18;fillColor=#b1ddf0;strokeColor=#10739e;" parent="1" vertex="1">
          <mxGeometry x="570" y="468" width="40" height="60" as="geometry" />
        </mxCell>
        <mxCell id="96T816JnjrinyvRvFRQ3-22" value="zzBookDB" style="text;html=1;align=center;verticalAlign=middle;resizable=0;points=[];autosize=1;strokeColor=none;fillColor=none;fontSize=18;" parent="1" vertex="1">
          <mxGeometry x="548" y="523" width="100" height="30" as="geometry" />
        </mxCell>
        <mxCell id="96T816JnjrinyvRvFRQ3-23" value="&lt;span style=&quot;font-size: 18px&quot;&gt;注册中心&lt;br&gt;&lt;br&gt;管理平台&lt;br&gt;&lt;br&gt;MQ平台&lt;br&gt;&lt;/span&gt;" style="rounded=0;whiteSpace=wrap;html=1;fillColor=#f8cecc;strokeColor=#b85450;" parent="1" vertex="1">
          <mxGeometry x="40" y="155" width="80" height="390" as="geometry" />
        </mxCell>
        <mxCell id="96T816JnjrinyvRvFRQ3-24" value="&lt;span style=&quot;font-size: 18px&quot;&gt;监控中心&lt;br&gt;&lt;br&gt;配置中心&lt;br&gt;&lt;br&gt;调度平台&lt;br&gt;&lt;/span&gt;" style="rounded=0;whiteSpace=wrap;html=1;fillColor=#f8cecc;strokeColor=#b85450;" parent="1" vertex="1">
          <mxGeometry x="670" y="155" width="80" height="390" as="geometry" />
        </mxCell>
        <mxCell id="96T816JnjrinyvRvFRQ3-25" value="" style="endArrow=classic;html=1;rounded=0;fontSize=18;exitX=0.5;exitY=1;exitDx=0;exitDy=0;entryX=0.5;entryY=0;entryDx=0;entryDy=0;" parent="1" source="96T816JnjrinyvRvFRQ3-8" target="96T816JnjrinyvRvFRQ3-12" edge="1">
          <mxGeometry width="50" height="50" relative="1" as="geometry">
            <mxPoint x="260" y="655" as="sourcePoint" />
            <mxPoint x="310" y="605" as="targetPoint" />
          </mxGeometry>
        </mxCell>
        <mxCell id="96T816JnjrinyvRvFRQ3-26" value="" style="endArrow=classic;html=1;rounded=0;fontSize=18;exitX=0.5;exitY=1;exitDx=0;exitDy=0;entryX=0.5;entryY=0;entryDx=0;entryDy=0;" parent="1" source="96T816JnjrinyvRvFRQ3-8" target="96T816JnjrinyvRvFRQ3-14" edge="1">
          <mxGeometry width="50" height="50" relative="1" as="geometry">
            <mxPoint x="210" y="342" as="sourcePoint" />
            <mxPoint x="330" y="403" as="targetPoint" />
          </mxGeometry>
        </mxCell>
        <mxCell id="96T816JnjrinyvRvFRQ3-27" value="" style="endArrow=classic;html=1;rounded=0;fontSize=18;exitX=0.5;exitY=1;exitDx=0;exitDy=0;entryX=0.5;entryY=0;entryDx=0;entryDy=0;" parent="1" source="96T816JnjrinyvRvFRQ3-10" target="96T816JnjrinyvRvFRQ3-14" edge="1">
          <mxGeometry width="50" height="50" relative="1" as="geometry">
            <mxPoint x="210" y="342" as="sourcePoint" />
            <mxPoint x="480" y="403" as="targetPoint" />
          </mxGeometry>
        </mxCell>
        <mxCell id="96T816JnjrinyvRvFRQ3-28" value="" style="endArrow=classic;html=1;rounded=0;fontSize=18;exitX=0.5;exitY=1;exitDx=0;exitDy=0;entryX=0.5;entryY=0;entryDx=0;entryDy=0;" parent="1" source="96T816JnjrinyvRvFRQ3-10" target="96T816JnjrinyvRvFRQ3-12" edge="1">
          <mxGeometry width="50" height="50" relative="1" as="geometry">
            <mxPoint x="610" y="375" as="sourcePoint" />
            <mxPoint x="350" y="312" as="targetPoint" />
          </mxGeometry>
        </mxCell>
        <mxCell id="96T816JnjrinyvRvFRQ3-29" style="edgeStyle=orthogonalEdgeStyle;rounded=0;orthogonalLoop=1;jettySize=auto;html=1;exitX=0.5;exitY=1;exitDx=0;exitDy=0;fontSize=18;" parent="1" source="96T816JnjrinyvRvFRQ3-32" target="96T816JnjrinyvRvFRQ3-34" edge="1">
          <mxGeometry relative="1" as="geometry" />
        </mxCell>
        <mxCell id="96T816JnjrinyvRvFRQ3-30" style="edgeStyle=orthogonalEdgeStyle;rounded=0;orthogonalLoop=1;jettySize=auto;html=1;exitX=0.5;exitY=1;exitDx=0;exitDy=0;entryX=0.5;entryY=0;entryDx=0;entryDy=0;" parent="1" source="96T816JnjrinyvRvFRQ3-32" target="96T816JnjrinyvRvFRQ3-8" edge="1">
          <mxGeometry relative="1" as="geometry" />
        </mxCell>
        <mxCell id="96T816JnjrinyvRvFRQ3-31" style="edgeStyle=orthogonalEdgeStyle;rounded=0;orthogonalLoop=1;jettySize=auto;html=1;exitX=0.5;exitY=1;exitDx=0;exitDy=0;entryX=0.5;entryY=0;entryDx=0;entryDy=0;" parent="1" source="96T816JnjrinyvRvFRQ3-32" target="96T816JnjrinyvRvFRQ3-10" edge="1">
          <mxGeometry relative="1" as="geometry" />
        </mxCell>
        <mxCell id="96T816JnjrinyvRvFRQ3-32" value="&lt;font style=&quot;font-size: 18px&quot;&gt;zzGateWay&lt;/font&gt;" style="rounded=0;whiteSpace=wrap;html=1;fillColor=#d5e8d4;strokeColor=#82b366;" parent="1" vertex="1">
          <mxGeometry x="200" y="185" width="400" height="40" as="geometry" />
        </mxCell>
        <mxCell id="96T816JnjrinyvRvFRQ3-33" style="edgeStyle=orthogonalEdgeStyle;rounded=0;orthogonalLoop=1;jettySize=auto;html=1;exitX=0.5;exitY=1;exitDx=0;exitDy=0;entryX=0.5;entryY=0;entryDx=0;entryDy=0;entryPerimeter=0;" parent="1" source="96T816JnjrinyvRvFRQ3-34" target="96T816JnjrinyvRvFRQ3-35" edge="1">
          <mxGeometry relative="1" as="geometry" />
        </mxCell>
        <mxCell id="96T816JnjrinyvRvFRQ3-34" value="&lt;font style=&quot;font-size: 18px&quot;&gt;zzGameLogic&lt;/font&gt;" style="rounded=0;whiteSpace=wrap;html=1;fillColor=#ffe6cc;strokeColor=#d79b00;" parent="1" vertex="1">
          <mxGeometry x="335" y="292" width="130" height="40" as="geometry" />
        </mxCell>
        <mxCell id="96T816JnjrinyvRvFRQ3-35" value="" style="shape=cylinder3;whiteSpace=wrap;html=1;boundedLbl=1;backgroundOutline=1;size=15;fontSize=18;fillColor=#b1ddf0;strokeColor=#10739e;" parent="1" vertex="1">
          <mxGeometry x="380" y="468" width="40" height="60" as="geometry" />
        </mxCell>
        <mxCell id="96T816JnjrinyvRvFRQ3-36" value="zzgameDB" style="text;html=1;align=center;verticalAlign=middle;resizable=0;points=[];autosize=1;strokeColor=none;fillColor=none;fontSize=18;" parent="1" vertex="1">
          <mxGeometry x="350" y="523" width="100" height="30" as="geometry" />
        </mxCell>
        <mxCell id="96T816JnjrinyvRvFRQ3-37" value="" style="endArrow=classic;html=1;rounded=0;fontSize=18;exitX=0.5;exitY=1;exitDx=0;exitDy=0;entryX=0.5;entryY=0;entryDx=0;entryDy=0;" parent="1" source="96T816JnjrinyvRvFRQ3-34" target="96T816JnjrinyvRvFRQ3-14" edge="1">
          <mxGeometry width="50" height="50" relative="1" as="geometry">
            <mxPoint x="210" y="342" as="sourcePoint" />
            <mxPoint x="503" y="403" as="targetPoint" />
          </mxGeometry>
        </mxCell>
        <mxCell id="96T816JnjrinyvRvFRQ3-38" value="" style="endArrow=classic;html=1;rounded=0;fontSize=18;exitX=0.5;exitY=1;exitDx=0;exitDy=0;entryX=0.5;entryY=0;entryDx=0;entryDy=0;" parent="1" source="96T816JnjrinyvRvFRQ3-34" target="96T816JnjrinyvRvFRQ3-12" edge="1">
          <mxGeometry width="50" height="50" relative="1" as="geometry">
            <mxPoint x="600" y="342" as="sourcePoint" />
            <mxPoint x="317" y="403" as="targetPoint" />
          </mxGeometry>
        </mxCell>
        <mxCell id="lZ2urBYizNM2Iemvnk5U-9" style="edgeStyle=orthogonalEdgeStyle;rounded=0;orthogonalLoop=1;jettySize=auto;html=1;exitX=0.5;exitY=1;exitDx=0;exitDy=0;fontSize=18;" edge="1" parent="1" source="lZ2urBYizNM2Iemvnk5U-1" target="lZ2urBYizNM2Iemvnk5U-3">
          <mxGeometry relative="1" as="geometry" />
        </mxCell>
        <mxCell id="lZ2urBYizNM2Iemvnk5U-12" style="edgeStyle=orthogonalEdgeStyle;rounded=0;orthogonalLoop=1;jettySize=auto;html=1;exitX=1;exitY=0.5;exitDx=0;exitDy=0;fontSize=18;" edge="1" parent="1" source="lZ2urBYizNM2Iemvnk5U-1" target="lZ2urBYizNM2Iemvnk5U-11">
          <mxGeometry relative="1" as="geometry" />
        </mxCell>
        <mxCell id="lZ2urBYizNM2Iemvnk5U-1" value="&lt;font style=&quot;font-size: 18px&quot;&gt;media&lt;/font&gt;" style="rounded=0;whiteSpace=wrap;html=1;fillColor=#dae8fc;strokeColor=#6c8ebf;" vertex="1" parent="1">
          <mxGeometry x="290" y="760" width="170" height="110" as="geometry" />
        </mxCell>
        <mxCell id="lZ2urBYizNM2Iemvnk5U-3" value="" style="shape=cylinder3;whiteSpace=wrap;html=1;boundedLbl=1;backgroundOutline=1;size=15;fontSize=18;fillColor=#b1ddf0;strokeColor=#10739e;" vertex="1" parent="1">
          <mxGeometry x="355" y="930" width="40" height="60" as="geometry" />
        </mxCell>
        <mxCell id="lZ2urBYizNM2Iemvnk5U-4" value="Cache" style="rounded=1;whiteSpace=wrap;html=1;fontSize=18;fillColor=#ffe6cc;strokeColor=#d79b00;" vertex="1" parent="1">
          <mxGeometry x="346" y="836" width="58" height="30" as="geometry" />
        </mxCell>
        <mxCell id="lZ2urBYizNM2Iemvnk5U-6" style="edgeStyle=orthogonalEdgeStyle;rounded=0;orthogonalLoop=1;jettySize=auto;html=1;exitX=1;exitY=0.3333333333333333;exitDx=0;exitDy=0;exitPerimeter=0;fontSize=18;" edge="1" parent="1" source="lZ2urBYizNM2Iemvnk5U-5" target="lZ2urBYizNM2Iemvnk5U-1">
          <mxGeometry relative="1" as="geometry" />
        </mxCell>
        <mxCell id="lZ2urBYizNM2Iemvnk5U-5" value="业务方" style="shape=umlActor;verticalLabelPosition=bottom;verticalAlign=top;html=1;outlineConnect=0;fontSize=18;" vertex="1" parent="1">
          <mxGeometry x="135" y="795" width="30" height="60" as="geometry" />
        </mxCell>
        <mxCell id="lZ2urBYizNM2Iemvnk5U-11" value="&lt;font style=&quot;font-size: 18px&quot;&gt;腾讯云&lt;/font&gt;" style="rounded=0;whiteSpace=wrap;html=1;fillColor=#e1d5e7;strokeColor=#9673a6;" vertex="1" parent="1">
          <mxGeometry x="574" y="788" width="120" height="54" as="geometry" />
        </mxCell>
      </root>
    </mxGraphModel>
  </diagram>
</mxfile>
